<svg width="5" height="4" viewBox="0 0 25 24" fill="none" xmlns="http://www.w3.org/2000/svg">
<g id="function NEW">
<mask id="mask0_81_62" style="mask-type:alpha" maskUnits="userSpaceOnUse" x="0" y="0" width="25" height="24">
<rect id="Rectangle 1" x="0.666748" width="24" height="24" fill="#D9D9D9"/>
</mask>
<g mask="url(#mask0_81_62)">
<path id="Vector" fill-rule="evenodd" clip-rule="evenodd" d="M11.2064 3C7.04234 3 3.66675 6.37559 3.66675 10.5396C3.66675 14.7036 7.04234 18.0792 11.2064 18.0792C12.9683 18.0792 14.5902 17.4739 15.8736 16.4613L20.1525 20.7402C20.499 21.0866 21.0605 21.0866 21.407 20.7402C21.7534 20.3938 21.7534 19.8322 21.407 19.4858L17.128 15.2069C18.1407 13.9234 18.746 12.3016 18.746 10.5396C18.746 6.37559 15.3704 3 11.2064 3ZM5.44077 10.5396C5.44077 7.35536 8.0221 4.77402 11.2064 4.77402C14.3906 4.77402 16.972 7.35536 16.972 10.5396C16.972 12.132 16.3275 13.5721 15.2832 14.6165C14.2389 15.6608 12.7987 16.3052 11.2064 16.3052C8.0221 16.3052 5.44077 13.7239 5.44077 10.5396Z" fill="#4A90E2"/>
</g>
</g>
</svg>
