<svg width="59" height="61" viewBox="0 0 59 61" fill="none" xmlns="http://www.w3.org/2000/svg">
<g id="Group 1320">
<path id="Vector 30" d="M43.6665 58.3338H10.9998L7.6665 55.6672L5.6665 25.6672L7.6665 21.0005L26.3332 6.33382L32.3332 5.66715L41.6665 10.3338V5.00049H47.6665V14.3338L52.3332 21.0005C52.3332 31.8894 52.1998 54.0672 51.6665 55.6672C51.1332 57.2672 46.111 58.1116 43.6665 58.3338Z" fill="white"/>
<g id="casa">
<path id="Vector (Stroke)" fill-rule="evenodd" clip-rule="evenodd" d="M25.4173 8.60143L3.90238 26.105C2.96482 26.8678 1.58644 26.7261 0.823675 25.7885C0.0609142 24.851 0.202619 23.4726 1.14018 22.7098L22.6696 5.19442L22.6766 5.1888C26.6729 1.99175 32.3514 1.99175 36.3477 5.1888L36.3548 5.19442L57.8841 22.7098C58.8217 23.4726 58.9634 24.851 58.2007 25.7885C57.4379 26.7261 56.0595 26.8678 55.1219 26.105L33.6135 8.60659C33.6113 8.60483 33.6091 8.60307 33.6069 8.60132C31.2116 6.69008 27.8125 6.69012 25.4173 8.60143Z" fill="#4A90E2"/>
<path id="Vector (Stroke)_2" opacity="0.5" fill-rule="evenodd" clip-rule="evenodd" d="M41.9128 4.71088V9.81727C41.9128 11.0259 40.933 12.0057 39.7243 12.0057C38.5157 12.0057 37.5359 11.0259 37.5359 9.81727V3.9814C37.5359 1.96699 39.1689 0.333984 41.1833 0.333984H48.4781C50.4926 0.333984 52.1256 1.96699 52.1256 3.9814V18.5711C52.1256 19.7797 51.1458 20.7595 49.9371 20.7595C48.7285 20.7595 47.7487 19.7797 47.7487 18.5711V4.71088H41.9128Z" fill="#4A90E2"/>
<path id="Vector (Stroke)_3" fill-rule="evenodd" clip-rule="evenodd" d="M52.7593 19.3025C53.9667 19.2488 54.9891 20.1841 55.0427 21.3916L52.8564 21.4888L50.6702 21.586C50.6165 20.3785 51.5518 19.3562 52.7593 19.3025ZM9.18258 54.8044C9.12084 54.5995 9.05199 54.3198 8.98133 53.955C8.79059 52.9701 8.63151 51.6054 8.50567 49.9443C8.25509 46.6365 8.15277 42.3887 8.13005 38.1639C8.10737 33.9488 8.16402 29.797 8.22648 26.6962C8.25769 25.1466 8.29032 23.8613 8.31512 22.9641C8.32752 22.5155 8.33796 22.164 8.34529 21.9251C8.34895 21.8056 8.35184 21.7143 8.3538 21.6531L8.35676 21.5619C8.35676 21.5617 8.35677 21.5617 6.16953 21.4888L8.35676 21.5619C8.39702 20.3539 7.4504 19.3418 6.24243 19.3015C5.03445 19.2613 4.02255 20.2079 3.98229 21.4159L6.15964 21.4885C3.98229 21.4159 3.98231 21.4156 3.98229 21.4159L3.97914 21.5129C3.97712 21.5761 3.97417 21.6694 3.97044 21.7909C3.96299 22.0339 3.95242 22.3898 3.93989 22.8431C3.91483 23.7496 3.88193 25.046 3.85047 26.6081C3.78757 29.7307 3.73027 33.9224 3.75321 38.1875C3.7761 42.4429 3.87896 46.8122 4.14128 50.2749C4.27189 51.9991 4.4462 53.558 4.68429 54.7872C4.80267 55.3985 4.94824 55.9895 5.13669 56.5034C5.29695 56.9406 5.59931 57.647 6.20422 58.1655C6.75564 58.6382 7.46628 58.8676 7.91089 58.9939C8.45032 59.1471 9.08929 59.2743 9.78064 59.3836C11.1701 59.6034 12.9599 59.7797 14.9846 59.9183C19.0452 60.1964 24.2159 60.3338 29.3761 60.3338C34.5366 60.3338 39.7293 60.1963 43.8344 59.9184C45.882 59.7798 47.6972 59.6038 49.117 59.385C49.8243 59.276 50.4749 59.1502 51.0258 59.0009C51.5017 58.8718 52.1722 58.6585 52.7105 58.2548C53.3713 57.7592 53.7224 57.0559 53.9162 56.5887C54.1358 56.0592 54.303 55.4535 54.437 54.8336C54.7064 53.5876 54.8981 52.015 55.0379 50.2859C55.3186 46.8117 55.4097 42.4334 55.4097 38.1757C55.4097 33.9069 55.3179 29.7122 55.2263 26.588C55.1805 25.025 55.1347 23.7278 55.1003 22.8207C55.0831 22.367 55.0688 22.0108 55.0587 21.7675C55.0537 21.6458 55.0497 21.5524 55.047 21.4891L55.0428 21.3935L55.0427 21.3916C55.0427 21.3913 55.0427 21.3916 52.8564 21.4888C50.6702 21.586 50.6701 21.5858 50.6702 21.586L50.6702 21.5871L50.6741 21.677C50.6767 21.738 50.6806 21.8292 50.6855 21.9485C50.6954 22.1871 50.7096 22.5383 50.7266 22.9865C50.7606 23.8831 50.8059 25.1676 50.8513 26.7163C50.9422 29.8155 51.0328 33.9643 51.0328 38.1757C51.0328 42.3982 50.9416 46.637 50.6752 49.9333C50.5413 51.5895 50.3683 52.9405 50.159 53.9086C50.0772 54.2869 49.9981 54.5668 49.9296 54.7629C49.914 54.7673 49.8976 54.7718 49.8804 54.7765C49.5485 54.8665 49.0746 54.963 48.4504 55.0591C47.2073 55.2507 45.5318 55.4166 43.5387 55.5515C39.5624 55.8207 34.4739 55.9569 29.3761 55.9569C24.278 55.9569 19.2131 55.8207 15.2836 55.5516C13.3133 55.4167 11.6694 55.2511 10.4644 55.0605C9.90721 54.9724 9.48317 54.8849 9.18258 54.8044ZM9.30616 55.1378C9.306 55.1383 9.30229 55.132 9.2955 55.1177C9.30292 55.1303 9.30632 55.1374 9.30616 55.1378ZM49.8154 55.0327C49.8152 55.0323 49.8188 55.0255 49.8266 55.0136C49.8194 55.0272 49.8155 55.0332 49.8154 55.0327Z" fill="#4A90E2"/>
<path id="Vector (Stroke)_4" opacity="0.5" fill-rule="evenodd" clip-rule="evenodd" d="M29.368 32.4316C29.4159 32.4316 29.4639 32.4317 29.5121 32.4317C29.5603 32.4317 29.6083 32.4316 29.6562 32.4316C31.5962 32.4315 33.2678 32.4314 34.6063 32.6114C36.0409 32.8043 37.416 33.2392 38.5314 34.3546C39.6468 35.47 40.0817 36.8451 40.2746 38.2796C40.4545 39.6182 40.4545 41.2898 40.4543 43.2298L40.4543 57.9636H36.0774V43.3739C36.0774 41.2487 36.0728 39.875 35.9367 38.8629C35.8091 37.9136 35.6031 37.6161 35.4365 37.4495C35.2699 37.2829 34.9723 37.0769 34.0231 36.9493C33.011 36.8132 31.6372 36.8086 29.5121 36.8086C27.3869 36.8086 26.0132 36.8132 25.001 36.9493C24.0518 37.0769 23.7543 37.2829 23.5877 37.4495C23.4211 37.6161 23.2151 37.9136 23.0875 38.8629C22.9514 39.875 22.9467 41.2487 22.9467 43.3739V57.9636H18.5698V43.3739C18.5698 43.3257 18.5698 43.2777 18.5698 43.2298C18.5697 41.2898 18.5696 39.6182 18.7496 38.2796C18.9425 36.8451 19.3774 35.47 20.4928 34.3546C21.6082 33.2392 22.9833 32.8043 24.4178 32.6114C25.7564 32.4314 27.428 32.4315 29.368 32.4316Z" fill="#4A90E2"/>
<path id="Vector (Stroke)_5" opacity="0.5" fill-rule="evenodd" clip-rule="evenodd" d="M29.5121 17.8413C27.4977 17.8413 25.8647 19.4743 25.8647 21.4887C25.8647 23.5031 27.4977 25.1361 29.5121 25.1361C31.5265 25.1361 33.1595 23.5031 33.1595 21.4887C33.1595 19.4743 31.5265 17.8413 29.5121 17.8413ZM21.4878 21.4887C21.4878 17.057 25.0804 13.4644 29.5121 13.4644C33.9438 13.4644 37.5364 17.057 37.5364 21.4887C37.5364 25.9204 33.9438 29.513 29.5121 29.513C25.0804 29.513 21.4878 25.9204 21.4878 21.4887Z" fill="#4A90E2"/>
</g>
</g>
</svg>
