<svg xmlns="http://www.w3.org/2000/svg" width="130" height="171" viewBox="0 0 130 171" fill="none">
  <path opacity="0.4" d="M92.6875 40.8227H88.8579C84.8586 40.8227 83.6558 39.2604 83.6558 35.2875V5.75966C83.6558 1.78675 84.9871 -0.00830078 88.9864 -0.00830078H121.531C125.53 -0.00830078 127 1.78675 127 5.75966V35.4117C127 39.3639 125.273 40.8175 121.279 40.8175H113.758C113.198 40.8175 112.658 41.0193 112.237 41.3866C110.679 42.7471 106.824 46.1561 105.76 47.4856C105.533 47.7701 105.112 47.7805 104.865 47.5115C103.621 46.1509 98.9743 42.4884 97.3756 41.2417C97.0209 40.9675 96.5891 40.8175 96.1419 40.8175H92.6927L92.6875 40.8227Z" fill="white"/>
  <path d="M106.124 33.6475C105.697 33.7923 104.983 33.7923 104.531 33.6475C100.829 32.3594 92.5122 27.0518 92.5122 18.0248C92.5122 14.0416 95.7044 10.8291 99.6317 10.8291C101.965 10.8291 104.017 11.9465 105.327 13.695C106.638 11.9465 108.689 10.8291 111.023 10.8291C114.955 10.8291 118.142 14.0416 118.142 18.0248C118.112 27.057 109.825 32.3594 106.124 33.6475Z" fill="white"/>
  <path d="M100.224 130.235H83.605V131.067H100.224V130.235Z" fill="#9FCAFF"/>
  <path d="M68.0189 121.156L64.2664 165.903" stroke="#364B69" stroke-miterlimit="10"/>
  <path d="M115.044 121.156L118.796 165.903" stroke="#364B69" stroke-miterlimit="10"/>
  <path d="M97.0413 131.066L100.963 165.902" stroke="#364B69" stroke-miterlimit="10"/>
  <path d="M86.3853 131.066L83.6043 155.768L82.4631 165.902" fill="#EEF9FF"/>
  <path d="M86.3853 131.066L83.6043 155.768L82.4631 165.902" stroke="#364B69" stroke-miterlimit="10"/>
  <path d="M99.8128 155.629L83.605 155.768" stroke="#364B69" stroke-miterlimit="10"/>
  <path d="M65.074 53.1761V35.0652" stroke="#364B69" stroke-width="3" stroke-miterlimit="10"/>
  <path d="M76.1865 65.8249C76.1865 58.8413 71.2105 53.1768 65.0729 53.1768C58.9352 53.1768 53.9592 58.8413 53.9592 65.8249H76.1865Z" fill="#364B69"/>
  <path d="M120.102 117.607H62.6885V121.161H120.102V117.607Z" fill="#E7F3FF"/>
  <path d="M39.9878 69.4145C42.4758 75.1152 38.7079 75.9273 38.7079 75.9273V78.6225C38.7079 78.6225 38.3789 79.0415 36.8316 79.2226C35.2792 79.4036 34.4464 78.6225 34.4464 78.6225L34.724 72.151C34.724 72.151 33.809 72.032 34.0866 71.2509C34.3642 70.4698 35.1815 71.2509 35.1815 71.2509C35.1815 71.2509 35.9166 71.6906 35.9372 70.8939C35.9577 70.0973 35.9937 70.0973 36.2353 70.0559C36.4769 70.0145 37.0269 69.9731 37.0269 68.9592C37.0269 68.9592 38.9238 69.7869 39.7771 69.4093C39.7771 69.4093 39.9519 69.3472 39.9827 69.4196H39.9878V69.4145Z" fill="#F4BDB5"/>
  <path d="M39.9872 69.4134C41.1387 69.3513 40.7223 68.3736 40.7223 68.3736C40.7223 68.3736 38.8563 65.456 38.1418 66.3354C37.4273 67.2148 35.6795 67.0544 35.6795 67.0544C35.6795 67.0544 34.0295 67.0855 34.0397 68.2391C34.0397 68.8133 33.9164 69.4703 33.8033 70.0341C33.8033 70.0341 33.3972 71.3222 33.8033 72.0413C34.2094 72.7603 34.6874 73.1328 34.6874 73.1328L34.6309 72.181L34.6001 72.093L34.1888 71.8602L34.0603 71.3791L34.2865 70.9705C34.2865 70.9705 34.6566 70.9136 34.8005 71.0325C34.9496 71.1515 35.402 71.4102 35.4996 71.3895C35.5973 71.3688 35.9263 71.3015 35.9314 70.3497C35.9314 70.3497 36.0702 70.0548 36.466 69.9565C36.8618 69.8582 37.088 68.953 37.088 68.953C37.088 68.953 38.8409 69.6772 39.2573 69.5323C39.6737 69.3875 40.0027 69.4134 40.0027 69.4134H39.9975H39.9872Z" fill="#364B69"/>
  <path d="M39.6232 78.6796C40.0241 78.752 40.8363 78.9124 42.3373 79.4556C44.8099 80.3505 54.4533 87.4376 54.4533 87.4376L49.9092 94.2867L48.1923 92.8693L48.4442 97.6389C48.4442 97.6389 36.1791 97.8406 35.8295 97.7423C35.48 97.6389 35.223 95.461 35.223 95.461L27.2964 98.0476C27.2964 98.0476 24.7725 92.2123 25.379 85.5132C25.9856 78.8141 33.8556 78.6641 33.8556 78.6641L34.3542 78.6072C34.3542 78.6072 35.9169 79.8073 37.7675 79.1193L38.7853 78.6641C38.7853 78.6641 39.2325 78.6072 39.6283 78.6796H39.6232Z" fill="#9FCAFF"/>
  <path d="M26.7417 114.202H50.2129L48.4343 97.7467L36.5599 97.4363L35.7529 95.662L35.2234 94.7463L28.839 96.469L27.7287 97.457L26.7468 114.202H26.7417Z" fill="#9FCAFF"/>
  <path d="M35.166 95.5542C35.3202 97.6338 35.9576 97.851 35.9576 97.851L49.5489 97.7372L49.5232 96.8216L54.4426 96.6974C55.1006 98.9788 53.5585 99.4909 52.3505 100.251C51.1373 101.012 34.1173 102.771 31.6756 102.579C29.2339 102.388 28.4783 97.6545 28.4783 97.6545L35.166 95.5542Z" fill="#F4BDB5"/>
  <path d="M50.8657 93.0919L55.5846 96.6665C55.5846 96.6665 59.1675 98.115 60.2316 93.7489C61.2905 89.3828 61.2648 74.443 61.2648 74.443C61.2648 74.443 61.1363 74.293 60.9975 74.4017C60.8587 74.5103 60.7251 75.6173 60.7251 75.6173C60.7251 75.6173 60.5657 75.7208 60.5349 75.6121C60.504 75.5035 60.648 73.7395 60.5812 73.6412C60.5143 73.5481 60.4835 73.4808 60.3961 73.5326C60.3087 73.5843 60.1339 74.8258 60.1339 74.8258C60.1339 74.8258 59.8615 74.9345 59.8718 74.6603C59.8821 74.3861 59.8461 73.0877 59.8461 73.0877V72.9325C59.8461 72.9325 59.7073 72.8135 59.5222 72.9325L59.4708 74.7276C59.4708 74.7276 59.2498 74.8465 59.1984 74.7276C59.1521 74.6034 59.183 72.8187 59.183 72.8187V72.7359C59.183 72.7359 59.0287 72.6325 58.8643 72.7359C58.6946 72.8394 57.7488 76.8899 57.8978 77.7279C58.0521 78.566 56.0679 89.4708 56.0679 89.4708L55.9136 90.1174L53.9603 88.3275" fill="#F4BDB5"/>
  <path d="M54.6081 94.8716L37.619 95.4665C37.182 95.482 36.8376 95.8493 36.853 96.2942V96.4235C36.8736 96.8632 37.2386 97.2098 37.6806 97.1943L54.6698 96.5994C55.1067 96.5839 55.4511 96.2166 55.4357 95.7717V95.6424C55.4152 95.2027 55.0502 94.8561 54.6081 94.8716Z" fill="#364B69"/>
  <path d="M61.408 82.3788L54.2525 94.8355C54.1703 94.9804 54.2165 95.1666 54.3656 95.2545L54.4067 95.2804C54.5507 95.3632 54.7409 95.3166 54.8231 95.1666L61.9786 82.7099C62.0608 82.565 62.0146 82.3788 61.8655 82.2909L61.8244 82.265C61.6805 82.1822 61.4954 82.2288 61.408 82.3788Z" fill="#364B69"/>
  <path d="M41.0728 156.038L40.5947 161.211H43.751C43.751 161.211 43.3706 159.436 45.4884 159.664L45.9151 155.681" fill="#F4BDB5"/>
  <path d="M48.7676 114.203C51.9444 131.403 47.6316 156.669 47.6316 156.669H37.1091L39.191 128.03C39.191 128.03 42.5734 122.464 43.1646 114.203H48.7676Z" fill="#364B69"/>
  <path d="M17.5808 149.658L14.2241 153.233L16.4448 155.111C16.4448 155.111 17.5551 153.921 18.6141 154.857L21.2614 152.384" fill="#F4BDB5"/>
  <path d="M43.525 114.317C43.2988 128.32 24.0684 154.729 24.0684 154.729L14.4558 148.03C14.4558 148.03 26.8751 132.122 28.993 123.22C29.836 119.686 30.3809 116.614 30.7253 114.203" fill="#273C56"/>
  <path d="M14.0751 153.208L10.7441 156.229L20.5881 164.247C20.5881 164.247 21.7755 162.798 20.5881 160.595C19.4006 158.386 18.7478 157.118 18.7478 157.118C18.7478 157.118 19.2618 155.08 18.8146 154.677C18.3674 154.273 17.0052 154.071 16.3215 154.982" fill="#273C56"/>
  <path d="M40.5994 161.21L39.9312 165.669L52.5972 165.586C52.5972 165.586 52.6023 163.713 50.2943 162.762C47.9862 161.815 46.6754 161.251 46.6754 161.251C46.6754 161.251 45.7861 159.347 45.1898 159.321C44.5884 159.296 43.4112 160.009 43.4575 161.148" fill="#273C56"/>
  <path d="M5.46495 167.207H123.613C124.893 167.207 125.931 166.162 125.931 164.874L125.839 82.5701L109.286 69.4616V53.9838H100.27V61.7899L68.3274 36.9851C66.4151 35.5004 63.7421 35.5108 61.8401 37.011L4.21582 82.5598V165.944C4.21582 166.638 4.77613 167.196 5.46495 167.196V167.207Z" stroke="white" stroke-width="7" stroke-linecap="round" stroke-linejoin="round"/>
</svg>