<svg xmlns="http://www.w3.org/2000/svg" width="60" height="63" viewBox="0 0 60 63" fill="none">
  <path fill-rule="evenodd" clip-rule="evenodd" d="M25.79 9.24947L3.67002 27.2454C2.70608 28.0296 1.28893 27.8839 0.504719 26.92C-0.279495 25.956 -0.133805 24.5389 0.830126 23.7547L22.965 5.74663L22.9722 5.74086C27.081 2.45389 32.9192 2.45389 37.0279 5.74086L37.0351 5.74663L59.17 23.7547C60.1339 24.5389 60.2796 25.956 59.4954 26.92C58.7112 27.8839 57.2941 28.0296 56.3301 27.2454L34.2168 9.25477C34.2145 9.25296 34.2122 9.25115 34.21 9.24935C31.7473 7.28436 28.2526 7.2844 25.79 9.24947Z" fill="#4A90E2"/>
  <path opacity="0.5" fill-rule="evenodd" clip-rule="evenodd" d="M42.75 5.25V10.5C42.75 11.7426 41.7426 12.75 40.5 12.75C39.2574 12.75 38.25 11.7426 38.25 10.5V4.5C38.25 2.42893 39.9289 0.75 42 0.75H49.5C51.5711 0.75 53.25 2.42893 53.25 4.5V19.5C53.25 20.7426 52.2426 21.75 51 21.75C49.7574 21.75 48.75 20.7426 48.75 19.5V5.25H42.75Z" fill="#4A90E2"/>
  <path fill-rule="evenodd" clip-rule="evenodd" d="M53.9004 20.2523C55.1418 20.1971 56.1929 21.1587 56.2481 22.4001L54.0003 22.5L51.7525 22.6C51.6973 21.3585 52.659 20.3074 53.9004 20.2523ZM9.09812 56.7527C9.03465 56.542 8.96385 56.2544 8.89121 55.8793C8.6951 54.8668 8.53155 53.4637 8.40217 51.7559C8.14454 48.355 8.03935 43.9878 8.01598 39.6442C7.99267 35.3105 8.05092 31.042 8.11513 27.8539C8.14722 26.2608 8.18076 24.9393 8.20626 24.0168C8.21901 23.5556 8.22975 23.1942 8.23728 22.9486C8.24105 22.8258 8.24401 22.7319 8.24603 22.669L8.24907 22.5752C8.24908 22.575 8.24908 22.575 6.00033 22.5L8.24907 22.5752C8.29046 21.3332 7.31723 20.2927 6.07528 20.2513C4.83332 20.2099 3.79297 21.1831 3.75158 22.4251L5.99016 22.4997C3.75158 22.4251 3.75159 22.4247 3.75158 22.4251L3.74834 22.5249C3.74626 22.5898 3.74323 22.6857 3.73939 22.8106C3.73173 23.0605 3.72086 23.4264 3.70798 23.8925C3.68222 24.8245 3.64839 26.1573 3.61604 27.7633C3.55138 30.9737 3.49246 35.2833 3.51605 39.6684C3.53958 44.0435 3.64533 48.5357 3.91503 52.0958C4.04932 53.8684 4.22853 55.4712 4.47331 56.735C4.59503 57.3634 4.74469 57.9711 4.93844 58.4995C5.10321 58.9489 5.41407 59.6752 6.03599 60.2083C6.60293 60.6943 7.33355 60.9302 7.79067 61.06C8.34527 61.2175 9.00221 61.3483 9.713 61.4607C11.1416 61.6866 12.9816 61.8679 15.0633 62.0104C19.2381 62.2963 24.5542 62.4375 29.8596 62.4375C35.1652 62.4375 40.504 62.2962 44.7245 62.0105C46.8297 61.868 48.6959 61.687 50.1557 61.4621C50.8829 61.35 51.5518 61.2207 52.1181 61.0671C52.6075 60.9345 53.2969 60.7151 53.8503 60.3001C54.5297 59.7906 54.8906 59.0675 55.0898 58.5871C55.3157 58.0427 55.4875 57.4201 55.6253 56.7827C55.9023 55.5017 56.0994 53.8848 56.2431 52.1071C56.5317 48.5352 56.6254 44.0338 56.6254 39.6563C56.6254 35.2674 56.531 30.9548 56.4369 27.7427C56.3898 26.1357 56.3427 24.8021 56.3073 23.8694C56.2896 23.403 56.2748 23.0367 56.2645 22.7866C56.2593 22.6615 56.2552 22.5654 56.2524 22.5003L56.2482 22.4021L56.2481 22.4001C56.2481 22.3998 56.2481 22.4001 54.0003 22.5C51.7525 22.6 51.7525 22.5998 51.7525 22.6L51.7526 22.6011L51.7566 22.6935C51.7593 22.7563 51.7633 22.85 51.7683 22.9727C51.7785 23.218 51.793 23.579 51.8105 24.0399C51.8455 24.9617 51.8921 26.2823 51.9388 27.8746C52.0322 31.0609 52.1254 35.3264 52.1254 39.6563C52.1254 43.9976 52.0316 48.3555 51.7577 51.7446C51.6201 53.4473 51.4422 54.8363 51.227 55.8317C51.1429 56.2206 51.0616 56.5084 50.9912 56.71C50.9751 56.7145 50.9583 56.7192 50.9406 56.7239C50.5993 56.8165 50.1121 56.9157 49.4704 57.0146C48.1923 57.2115 46.4697 57.3821 44.4205 57.5208C40.3324 57.7976 35.1008 57.9375 29.8596 57.9375C24.6181 57.9375 19.4108 57.7976 15.3707 57.5209C13.345 57.3822 11.6548 57.2119 10.416 57.0159C9.84314 56.9253 9.40717 56.8354 9.09812 56.7527ZM9.22518 57.0955C9.22501 57.0959 9.2212 57.0894 9.21421 57.0748C9.22184 57.0877 9.22534 57.095 9.22518 57.0955ZM50.8737 56.9874C50.8735 56.987 50.8773 56.9799 50.8853 56.9677C50.8778 56.9818 50.8738 56.9879 50.8737 56.9874Z" fill="#4A90E2"/>
  <path opacity="0.5" fill-rule="evenodd" clip-rule="evenodd" d="M29.8519 33.75C29.9011 33.75 29.9505 33.75 30 33.75C30.0496 33.75 30.0989 33.75 30.1481 33.75C32.1427 33.7499 33.8613 33.7498 35.2375 33.9348C36.7125 34.1331 38.1262 34.5803 39.273 35.727C40.4197 36.8738 40.8669 38.2876 41.0652 39.7625C41.2502 41.1387 41.2501 42.8573 41.25 44.8519L41.25 60H36.75V45C36.75 42.8151 36.7452 41.4027 36.6053 40.3621C36.4741 39.3862 36.2623 39.0803 36.091 38.909C35.9197 38.7377 35.6138 38.5259 34.6379 38.3947C33.5973 38.2548 32.1849 38.25 30 38.25C27.8151 38.25 26.4027 38.2548 25.3621 38.3947C24.3862 38.5259 24.0803 38.7377 23.909 38.909C23.7377 39.0803 23.5259 39.3862 23.3947 40.3621C23.2548 41.4027 23.25 42.8151 23.25 45V60H18.75V45C18.75 44.9505 18.75 44.9011 18.75 44.8519C18.7499 42.8573 18.7498 41.1387 18.9348 39.7625C19.1331 38.2876 19.5803 36.8738 20.727 35.727C21.8738 34.5803 23.2876 34.1331 24.7625 33.9348C26.1387 33.7498 27.8573 33.7499 29.8519 33.75Z" fill="#4A90E2"/>
  <path opacity="0.5" fill-rule="evenodd" clip-rule="evenodd" d="M30 18.75C27.9289 18.75 26.25 20.4289 26.25 22.5C26.25 24.5711 27.9289 26.25 30 26.25C32.0711 26.25 33.75 24.5711 33.75 22.5C33.75 20.4289 32.0711 18.75 30 18.75ZM21.75 22.5C21.75 17.9437 25.4437 14.25 30 14.25C34.5563 14.25 38.25 17.9437 38.25 22.5C38.25 27.0563 34.5563 30.75 30 30.75C25.4437 30.75 21.75 27.0563 21.75 22.5Z" fill="#4A90E2"/>
</svg>