<svg width="149" height="48" viewBox="0 0 149 48" fill="none" xmlns="http://www.w3.org/2000/svg">
<g id="logo">
<path id="Vector" d="M18.5883 8.5554C17.2483 9.89541 16.0286 11.39 15.0493 13.0221C14.0529 11.39 12.9191 9.89541 11.5791 8.5554C9.38006 6.35641 6.85466 4.72435 4.02003 3.52178C2.74874 2.95485 1.47745 2.52536 0 2.25049V9.27694C6.21902 11.3385 10.9778 16.8703 11.5275 23.536V34.8745L11.6134 35.5274C11.6134 40.0628 14.3278 43.8938 18.2276 45.5431H18.2791V24.0858C18.8288 17.2139 23.5876 11.39 29.8066 9.25977V2.25049C28.5181 2.54254 27.2125 3.02357 26.0099 3.52178C23.1753 4.72435 20.7873 6.35641 18.5883 8.5554Z" fill="white"/>
<path id="Vector_2" d="M126.648 2.67993C114.828 2.67993 105.225 12.2661 105.225 24.1029C105.225 35.9396 114.811 45.5259 126.648 45.5259C138.485 45.5259 148.071 35.9396 148.071 24.1029C148.071 12.2661 138.468 2.67993 126.648 2.67993ZM126.648 38.7399C118.556 38.7399 111.994 32.1773 111.994 24.0857C111.994 15.9941 118.556 9.43151 126.648 9.43151C134.74 9.43151 141.302 15.9941 141.302 24.0857C141.285 32.1773 134.74 38.7399 126.648 38.7399Z" fill="white"/>
<path id="Vector_3" d="M89.2651 1.9585L89.1105 2.02721C85.2107 3.59056 82.4963 7.42161 82.4963 11.957V45.5431H102.614V38.7744H89.2651V1.9585Z" fill="white"/>
<path id="Vector_4" d="M57.6204 18.8804V0H51.2124V24.3263H52.3463C55.3011 24.3263 57.6204 21.8353 57.6204 18.8804Z" fill="white"/>
<path id="Vector_5" d="M62.0011 3.53906V11.0294C62.19 11.1153 62.379 11.184 62.5165 11.2699C66.588 13.8812 69.2509 18.4166 69.2509 23.5705C69.2509 31.4044 63.1177 37.8124 55.3869 38.2075C55.1292 38.2247 54.9059 38.2247 54.6482 38.2247C53.9438 38.2247 53.2738 38.1731 52.5867 38.0701C52.5523 38.0701 52.5351 38.0701 52.5008 38.0529C52.2774 38.0185 52.0541 37.9842 51.8307 37.9326H51.7964C51.5731 37.8811 51.3497 37.8467 51.1436 37.7952H51.1264C50.903 37.7436 50.6969 37.6749 50.4736 37.6234C50.2846 37.5718 50.0956 37.5031 49.9238 37.4516C50.1128 37.5203 50.2846 37.5718 50.4736 37.6234C44.4092 35.8367 39.9768 30.219 39.9768 23.5705C39.9768 18.4166 42.4507 13.8812 46.5394 11.2699C46.6769 11.184 46.8143 11.0981 46.8143 11.0294V3.53906C38.7743 6.59703 33.105 14.4137 33.105 23.5705C33.105 35.39 42.7599 44.9934 54.5795 44.9934C66.3991 44.9934 75.9165 35.4072 75.9165 23.5705C75.9337 14.4137 70.0583 6.59703 62.0011 3.53906Z" fill="white"/>
<path id="Vector_6" d="M58.8916 47.9312V48.0001L58.9088 47.9828L58.8916 47.9312Z" fill="white"/>
</g>
</svg>
